<svg version="1.2" xmlns="http://www.w3.org/2000/svg" viewBox="0 0 432 130" width="432" height="130"><style>.a{fill:#ee2737}</style><path fill-rule="evenodd" class="a" d="m151.2 103.4h5.9q1.9 0 3.3 0.3 1.5 0.4 2.4 1.1 1 0.7 1.5 1.7 0.6 1 0.6 2.3 0 1.3-0.6 2.3-0.6 1-1.6 1.7-1 0.7-2.4 1-1.4 0.4-2.9 0.4h-1v5.7h-5.2zm6.2 7.5q1.2 0 1.9-0.5 0.7-0.6 0.7-1.6 0-0.5-0.2-0.9-0.2-0.3-0.5-0.6-0.4-0.2-0.9-0.4-0.4-0.1-1-0.1h-1v4q0.1 0 0.4 0.1 0.2 0 0.6 0z"/><path class="a" d="m196.9 103.4h5.1v12.9h5.8v3.6h-10.9z"/><path fill-rule="evenodd" class="a" d="m243.2 103.4h7.3l4.7 16.5h-5.6l-0.6-3.2h-4.3l-0.7 3.2h-5.4zm5.2 10.3l-1.5-7.2-1.7 7.2z"/><path class="a" d="m291.6 103.4h4.8l6.5 8.8v-8.8h4.3v16.5h-4.8l-6.6-8.6v8.6h-4.2z"/><path fill-rule="evenodd" class="a" d="m188.8 24.2c0.3-10.4 2.9-14.1 21.1-14.1-2.4 2.4-2.4 9.4-2.4 18.8v47c0 5.2-4.2 9.4-9.4 9.4-3.1 0-6.1-1.6-7.7-4.1-2.4 2.8-6.1 4.1-11 4.1h-9.4c-14.1 0-18.8-4.7-18.8-14.1v-23.5c0-9.4 4.7-14.1 18.8-14.1h9.4c7 0 9.4-2.3 9.4-9.4zm0 47v-35.3c-2.4 1.7-5.5 2.4-9.4 2.4h-0.2c-6.9 0.1-9.2 2.5-9.2 9.4v23.5c0 6.9 2.3 9.3 9.2 9.4h0.2c7 0 9.4-2.4 9.4-9.4z"/><path fill-rule="evenodd" class="a" d="m254.5 47.7c0-6.9-2.3-9.3-9.2-9.4h-0.4c-6.8 0.1-9.2 2.5-9.2 9.4 0 5.2-4.2 9.4-9.4 9.4-5.1 0-9.4-4.2-9.4-9.4 0-9.4 4.7-14.1 18.8-14.1h18.8c14.1 0 18.8 4.7 18.8 14.1v18.8c0 9.4 0 16.4 2.3 18.8-11.1 0-16.4-1.3-18.8-4.8-2.4 3.2-6.2 4.8-11.7 4.8h-9.4c-14.1 0-18.8-4.7-18.8-14.1 0-9.4 4.7-14.1 18.8-14.1h9.4c7.1 0 9.4-2.3 9.4-9.4zm0 23.5v-11.8c-2.3 1.7-5.4 2.4-9.4 2.4h-0.2c-6.8 0.1-9.2 2.4-9.2 9.4 0 6.9 2.4 9.3 9.2 9.4h0.2c7.1 0 9.4-2.4 9.4-9.4z"/><path class="a" d="m282.8 75.9c0 5.2 4.2 9.4 9.4 9.4 5.1 0 9.4-4.2 9.4-9.4v-23.5c0-9.4 0-16.4 2.3-18.8-20.7 0-21.1 4.7-21.1 18.8zm-0.1-56.2c0 5.2 4.1 9.3 9.4 9.3 5.2 0 9.5-4.1 9.5-9.3 0-5.3-4.3-9.5-9.5-9.5-5.3 0-9.4 4.2-9.4 9.5z"/><path class="a" d="m329.7 28.9c0-14.1-0.4-18.8-21.1-18.8 2.3 2.4 2.3 9.4 2.3 18.8v42.3c0 9.4 4.7 14.1 18.8 14.1h9.4c14.1 0 18.8-4.7 18.8-14.1 0-5.2-4.2-9.4-9.4-9.4-5.2 0-9.4 4.2-9.4 9.4 0 5.2-1.3 7.8-4.7 8.8-3.4-1-4.7-3.6-4.7-8.8z"/><path class="a" d="m386.1 52.4c0-14.1-0.5-18.8-21.1-18.8 2.3 2.4 2.3 9.4 2.3 18.8v18.8c0 9.4 4.7 14.1 18.8 14.1h9.4c3.9 0 7-0.8 9.4-2.5v16.6c0 6.9-2.4 9.3-9.2 9.4h-0.4c-6.9-0.1-9.2-2.5-9.2-9.4 0-5.2-4.2-9.4-9.4-9.4-5.2 0-9.4 4.2-9.4 9.4 0 9.4 4.7 14.1 18.8 14.1h18.8c14.1 0 18.8-4.7 18.8-14.1v-47c0-9.4 0-16.4 2.3-18.8-20.7 0-21.1 4.7-21.1 18.8v18.8c0 7-2.4 9.4-9.4 9.4h-0.2c-6.9-0.1-9.2-2.5-9.2-9.4z"/><path fill-rule="evenodd" class="a" d="m64.5 6.5c32.1 0 58.3 26 58.5 58.1v0.8c-0.2 32.1-26.4 58.1-58.5 58.1-32.3 0-58.5-26.2-58.5-58.5 0-32.3 26.2-58.5 58.5-58.5zm0 108.3c27.5 0 49.8-22.3 49.8-49.8 0-27.5-22.3-49.8-49.8-49.8-27.5 0-49.8 22.3-49.8 49.8 0 27.5 22.3 49.8 49.8 49.8z"/><path fill-rule="evenodd" class="a" d="m79.7 65q0 0.4 0 0.7 0 0.4 0 0.8-0.1 0.4-0.1 0.7-0.1 0.4-0.1 0.8-0.1 0.3-0.2 0.7-0.1 0.4-0.2 0.7-0.1 0.4-0.2 0.7-0.2 0.4-0.3 0.7-0.2 0.4-0.3 0.7-0.2 0.4-0.4 0.7-0.1 0.3-0.3 0.6-0.2 0.4-0.4 0.7-0.2 0.3-0.5 0.6-0.2 0.3-0.4 0.6-0.3 0.3-0.5 0.5-0.3 0.3-0.5 0.6-0.3 0.2-0.6 0.5-0.2 0.2-0.5 0.5-0.3 0.2-0.6 0.4-0.3 0.3-0.6 0.5-0.3 0.2-0.7 0.4-0.3 0.2-0.6 0.3-0.3 0.2-0.7 0.4-0.3 0.1-0.7 0.3-0.3 0.1-0.7 0.2-0.3 0.2-0.7 0.3-0.3 0.1-0.7 0.2-0.4 0.1-0.7 0.1-0.4 0.1-0.8 0.2-0.3 0-0.7 0.1-0.4 0-0.7 0-0.4 0-0.8 0-0.4 0-0.7 0-0.4 0-0.8 0-0.4-0.1-0.7-0.1-0.4-0.1-0.8-0.2-0.3 0-0.7-0.1-0.4-0.1-0.7-0.2-0.4-0.1-0.7-0.3-0.4-0.1-0.7-0.2-0.4-0.2-0.7-0.3-0.3-0.2-0.7-0.4-0.3-0.1-0.6-0.3-0.3-0.2-0.7-0.4-0.3-0.2-0.6-0.5-0.3-0.2-0.6-0.4-0.2-0.3-0.5-0.5-0.3-0.3-0.6-0.5-0.2-0.3-0.5-0.6-0.2-0.2-0.5-0.5-0.2-0.3-0.4-0.6-0.3-0.3-0.5-0.6-0.2-0.3-0.4-0.7-0.2-0.3-0.3-0.6-0.2-0.3-0.4-0.7-0.1-0.3-0.3-0.7-0.1-0.3-0.2-0.7-0.2-0.3-0.3-0.7-0.1-0.3-0.2-0.7-0.1-0.4-0.1-0.7-0.1-0.4-0.2-0.8 0-0.3-0.1-0.7 0-0.4 0-0.8 0-0.3 0-0.7 0-0.4 0-0.7 0-0.4 0-0.8 0.1-0.4 0.1-0.7 0.1-0.4 0.2-0.8 0-0.3 0.1-0.7 0.1-0.4 0.2-0.7 0.1-0.4 0.3-0.7 0.1-0.4 0.2-0.7 0.2-0.4 0.3-0.7 0.2-0.4 0.4-0.7 0.1-0.3 0.3-0.6 0.2-0.4 0.4-0.7 0.2-0.3 0.5-0.6 0.2-0.3 0.4-0.6 0.3-0.3 0.5-0.5 0.3-0.3 0.5-0.6 0.3-0.2 0.6-0.5 0.3-0.2 0.5-0.5 0.3-0.2 0.6-0.4 0.3-0.3 0.6-0.5 0.4-0.2 0.7-0.4 0.3-0.2 0.6-0.3 0.4-0.2 0.7-0.4 0.3-0.1 0.7-0.3 0.3-0.1 0.7-0.2 0.3-0.2 0.7-0.3 0.3-0.1 0.7-0.2 0.4-0.1 0.7-0.1 0.4-0.1 0.8-0.2 0.3 0 0.7-0.1 0.4 0 0.8 0 0.3 0 0.7 0 0.4 0 0.8 0 0.3 0 0.7 0 0.4 0.1 0.7 0.1 0.4 0.1 0.8 0.2 0.3 0 0.7 0.1 0.4 0.1 0.7 0.2 0.4 0.1 0.7 0.3 0.4 0.1 0.7 0.2 0.4 0.2 0.7 0.3 0.4 0.2 0.7 0.4 0.3 0.1 0.6 0.3 0.4 0.2 0.7 0.4 0.3 0.2 0.6 0.5 0.3 0.2 0.6 0.4 0.3 0.3 0.5 0.5 0.3 0.3 0.6 0.5 0.2 0.3 0.5 0.6 0.2 0.2 0.5 0.5 0.2 0.3 0.4 0.6 0.3 0.3 0.5 0.6 0.2 0.3 0.4 0.7 0.2 0.3 0.3 0.6 0.2 0.3 0.4 0.7 0.1 0.3 0.3 0.7 0.1 0.3 0.3 0.7 0.1 0.3 0.2 0.7 0.1 0.3 0.2 0.7 0.1 0.4 0.2 0.7 0 0.4 0.1 0.8 0 0.3 0.1 0.7 0 0.4 0 0.8 0 0.3 0 0.7z"/></svg>